<svg width="39" height="43" viewBox="0 0 39 43" fill="none" xmlns="http://www.w3.org/2000/svg">
<path fill-rule="evenodd" clip-rule="evenodd" d="M0.654547 33.7946C0.654547 33.7946 4.92232 43.5711 20.1403 42.9737C35.3577 42.3762 38.3029 32.9058 38.3029 32.9058C38.3029 32.9058 43.9002 18.0618 23.3736 1.81896C23.3736 1.81896 21.0559 0 20.1427 0C20.1427 0 19.4045 -2.13583e-07 20.1427 1.53341C20.1427 1.53341 24.6379 10.5371 14.3487 17.0483C14.3487 17.0483 12.3615 16.1442 12.5543 12.3356C12.5543 12.3356 12.6702 11.1315 11.7824 11.0338C11.7824 11.0338 11.0857 10.927 10.2404 11.7402C10.2404 11.7402 -3.05899 23.7502 0.654547 33.7946Z" fill="#7E6AD2"/>
</svg>
