<svg width="24" height="25" viewBox="0 0 24 25" fill="none" xmlns="http://www.w3.org/2000/svg">
<path fill-rule="evenodd" clip-rule="evenodd" d="M12 3.5C10.7876 3.5 9.62484 3.97411 8.76754 4.81802C7.91024 5.66193 7.42862 6.80653 7.42862 8V9.125H6.28577C6.00442 9.12498 5.73295 9.22712 5.52335 9.41187C5.31374 9.59661 5.18073 9.85098 5.14978 10.1262L4.00694 20.2512C3.98926 20.4085 4.00546 20.5676 4.05449 20.7182C4.10352 20.8689 4.18427 21.0077 4.29147 21.1255C4.39867 21.2433 4.52991 21.3376 4.67663 21.4021C4.82334 21.4667 4.98223 21.5 5.14292 21.5H18.8571C19.0178 21.5 19.1767 21.4667 19.3234 21.4021C19.4701 21.3376 19.6013 21.2433 19.7085 21.1255C19.8157 21.0077 19.8965 20.8689 19.9455 20.7182C19.9945 20.5676 20.0107 20.4085 19.9931 20.2512L18.8502 10.1262C18.8193 9.85098 18.6863 9.59661 18.4767 9.41187C18.267 9.22712 17.9956 9.12498 17.7142 9.125H16.5714V8C16.5714 6.80653 16.0898 5.66193 15.2325 4.81802C14.3752 3.97411 13.2124 3.5 12 3.5ZM14.2857 9.125V8C14.2857 7.40326 14.0449 6.83097 13.6162 6.40901C13.1876 5.98705 12.6062 5.75 12 5.75C11.3938 5.75 10.8124 5.98705 10.3838 6.40901C9.95512 6.83097 9.71431 7.40326 9.71431 8V9.125H14.2857ZM7.42862 12.5C7.42862 12.2016 7.54902 11.9155 7.76335 11.7045C7.97767 11.4935 8.26836 11.375 8.57146 11.375C8.87456 11.375 9.16525 11.4935 9.37958 11.7045C9.5939 11.9155 9.71431 12.2016 9.71431 12.5C9.71431 12.7984 9.5939 13.0845 9.37958 13.2955C9.16525 13.5065 8.87456 13.625 8.57146 13.625C8.26836 13.625 7.97767 13.5065 7.76335 13.2955C7.54902 13.0845 7.42862 12.7984 7.42862 12.5ZM15.4285 11.375C15.1254 11.375 14.8347 11.4935 14.6204 11.7045C14.4061 11.9155 14.2857 12.2016 14.2857 12.5C14.2857 12.7984 14.4061 13.0845 14.6204 13.2955C14.8347 13.5065 15.1254 13.625 15.4285 13.625C15.7316 13.625 16.0223 13.5065 16.2367 13.2955C16.451 13.0845 16.5714 12.7984 16.5714 12.5C16.5714 12.2016 16.451 11.9155 16.2367 11.7045C16.0223 11.4935 15.7316 11.375 15.4285 11.375Z" fill="black"/>
</svg>
