<svg width="24" height="25" viewBox="0 0 24 25" fill="none" xmlns="http://www.w3.org/2000/svg">
<path d="M18.3 3.5H5.7C4.98392 3.5 4.29716 3.78446 3.79081 4.29081C3.28446 4.79716 3 5.48392 3 6.2V18.8C3 19.5161 3.28446 20.2028 3.79081 20.7092C4.29716 21.2155 4.98392 21.5 5.7 21.5H18.3C19.0161 21.5 19.7028 21.2155 20.2092 20.7092C20.7155 20.2028 21 19.5161 21 18.8V6.2C21 5.48392 20.7155 4.79716 20.2092 4.29081C19.7028 3.78446 19.0161 3.5 18.3 3.5ZM10.2 5.3H13.8V8.117L12.495 7.217C12.348 7.12023 12.176 7.06865 12 7.06865C11.824 7.06865 11.652 7.12023 11.505 7.217L10.2 8.117V5.3ZM19.2 18.8C19.2 19.0387 19.1052 19.2676 18.9364 19.4364C18.7676 19.6052 18.5387 19.7 18.3 19.7H5.7C5.46131 19.7 5.23239 19.6052 5.0636 19.4364C4.89482 19.2676 4.8 19.0387 4.8 18.8V6.2C4.8 5.96131 4.89482 5.73239 5.0636 5.5636C5.23239 5.39482 5.46131 5.3 5.7 5.3H8.4V9.8C8.40043 9.96281 8.44503 10.1225 8.52903 10.2619C8.61303 10.4014 8.73329 10.5155 8.877 10.592C9.01773 10.6643 9.17503 10.6982 9.33304 10.6903C9.49104 10.6824 9.64417 10.6329 9.777 10.547L12 9.08L14.205 10.547C14.3404 10.6361 14.4973 10.6871 14.6592 10.6944C14.8211 10.7018 14.982 10.6653 15.1249 10.5888C15.2677 10.5123 15.3873 10.3986 15.4709 10.2597C15.5546 10.1209 15.5992 9.96207 15.6 9.8V5.3H18.3C18.5387 5.3 18.7676 5.39482 18.9364 5.5636C19.1052 5.73239 19.2 5.96131 19.2 6.2V18.8Z" fill="black"/>
</svg>
