<svg width="20" height="21" viewBox="0 0 20 21" fill="none" xmlns="http://www.w3.org/2000/svg">
<path d="M3.242 15.5C5.34042 14.3139 7.71058 13.6923 10.121 13.696C12.621 13.696 14.968 14.351 17 15.5M13 7.99997C13 8.79562 12.6839 9.55868 12.1213 10.1213C11.5587 10.6839 10.7956 11 10 11C9.20435 11 8.44129 10.6839 7.87868 10.1213C7.31607 9.55868 7 8.79562 7 7.99997C7 7.20432 7.31607 6.44126 7.87868 5.87865C8.44129 5.31604 9.20435 4.99997 10 4.99997C10.7956 4.99997 11.5587 5.31604 12.1213 5.87865C12.6839 6.44126 13 7.20432 13 7.99997ZM19 10.304C19 12.6909 18.0518 14.9801 16.364 16.6679C14.6761 18.3557 12.3869 19.304 10 19.304C7.61305 19.304 5.32387 18.3557 3.63604 16.6679C1.94821 14.9801 1 12.6909 1 10.304C1 7.917 1.94821 5.62782 3.63604 3.93999C5.32387 2.25217 7.61305 1.30396 10 1.30396C12.3869 1.30396 14.6761 2.25217 16.364 3.93999C18.0518 5.62782 19 7.917 19 10.304Z" stroke="black" stroke-width="2" stroke-linecap="round" stroke-linejoin="round"/>
</svg>
